<svg width="110" height="111" viewBox="0 0 110 111" fill="none" xmlns="http://www.w3.org/2000/svg">
<path d="M98.5807 16.4844L94.026 11.9297C93.8541 11.7578 93.6393 11.6826 93.4137 11.6826C93.1881 11.6826 92.9733 11.7686 92.8014 11.9297L84.6266 20.1045C81.0728 17.6967 76.8773 16.4129 72.5846 16.4199C67.0846 16.4199 61.5846 18.5146 57.3844 22.7148L46.4381 33.6611C46.2782 33.8227 46.1885 34.0408 46.1885 34.2681C46.1885 34.4954 46.2782 34.7135 46.4381 34.875L75.6246 64.0615C75.7965 64.2334 76.0114 64.3086 76.237 64.3086C76.4518 64.3086 76.6774 64.2227 76.8493 64.0615L87.7955 53.1152C95.1969 45.7031 96.067 34.2412 90.4059 25.8838L98.5807 17.709C98.9137 17.3652 98.9137 16.8174 98.5807 16.4844ZM82.6178 47.9482L76.237 54.3291L56.1705 34.2627L62.5514 27.8818C65.2262 25.207 68.7926 23.7246 72.5846 23.7246C76.3766 23.7246 79.9323 25.1963 82.6178 27.8818C85.2926 30.5566 86.775 34.123 86.775 37.915C86.775 41.707 85.2926 45.2627 82.6178 47.9482ZM62.1862 59.2275C62.0247 59.0676 61.8065 58.9779 61.5792 58.9779C61.3519 58.9779 61.1338 59.0676 60.9723 59.2275L53.818 66.3818L44.1178 56.6816L51.2828 49.5166C51.6159 49.1836 51.6159 48.6357 51.2828 48.3027L47.3727 44.3926C47.2112 44.2326 46.9931 44.1429 46.7658 44.1429C46.5385 44.1429 46.3203 44.2326 46.1588 44.3926L38.9938 51.5576L34.3746 46.9385C34.2945 46.8582 34.1989 46.795 34.0937 46.7525C33.9885 46.7101 33.8758 46.6893 33.7623 46.6914C33.5475 46.6914 33.3219 46.7773 33.15 46.9385L22.2145 57.8848C14.8131 65.2969 13.943 76.7588 19.6041 85.1162L11.4293 93.291C11.2694 93.4525 11.1797 93.6707 11.1797 93.898C11.1797 94.1253 11.2694 94.3434 11.4293 94.5049L15.984 99.0596C16.1559 99.2314 16.3707 99.3066 16.5963 99.3066C16.8219 99.3066 17.0368 99.2207 17.2086 99.0596L25.3834 90.8848C29.0036 93.3447 33.2145 94.5693 37.4254 94.5693C42.9254 94.5693 48.4254 92.4746 52.6256 88.2744L63.5719 77.3281C63.9049 76.9951 63.9049 76.4473 63.5719 76.1143L58.9528 71.4951L66.1178 64.3301C66.4508 63.9971 66.4508 63.4492 66.1178 63.1162L62.1862 59.2275ZM47.4479 83.1182C46.1331 84.4397 44.5695 85.4875 42.8474 86.201C41.1253 86.9146 39.2788 87.2797 37.4147 87.2754C33.6227 87.2754 30.067 85.8037 27.3815 83.1182C26.06 81.8034 25.0122 80.2398 24.2986 78.5177C23.5851 76.7955 23.2199 74.9491 23.2243 73.085C23.2243 69.293 24.6959 65.7373 27.3815 63.0518L33.7623 56.6709L53.8288 76.7373L47.4479 83.1182Z" fill="#B39B47"/>
<path opacity="0.1" d="M105.416 69.366C105.416 96.5483 75.3428 98.4688 50.3712 98.4688C25.3997 98.4688 5.15625 86.7047 5.15625 59.5224C5.15625 32.34 22.0627 5.59664 56.662 14.1563C95.9794 32.5596 107.775 46.6831 105.416 69.366Z" fill="#B39B47"/>
</svg>
