<svg width="180" height="136" viewBox="0 0 180 136" fill="none" xmlns="http://www.w3.org/2000/svg">
<path d="M163.327 60.0075V45.3584H154.441V20.2241C154.441 12.3729 148.077 6.0087 140.227 6.0087H39.6262C38.1544 6.0087 36.735 6.23346 35.3993 6.64842C33.6192 7.20171 31.9885 8.09647 30.5843 9.25491C27.4256 11.8629 25.4119 15.8079 25.4119 20.2241V45.3584H16.527V60.0075H0L9.85962 82.7313L0 105.456H25.4119V120.825C25.4119 125.241 27.4256 129.186 30.5843 131.794C31.9885 132.952 33.6192 133.847 35.3993 134.4C36.735 134.815 38.1544 135.039 39.6262 135.039H140.227C148.077 135.039 154.441 128.674 154.441 120.825V105.456H179.853L169.994 82.7313L179.853 60.0075H163.327Z" fill="#6F8A96"/>
<path d="M138.069 99.4458H179.853L169.994 76.7207L179.853 53.997H138.069V99.4458Z" fill="#F89A0F"/>
<path d="M163.327 84.7966L154.441 99.4458V84.7966H163.327Z" fill="#F2561A"/>
<path d="M41.7853 99.4458H0L9.85962 76.7207L0 53.997H41.7853V99.4458Z" fill="#F89A0F"/>
<path d="M140.227 129.028H39.6263C31.7765 129.028 25.412 122.664 25.412 114.814V14.2139C25.412 6.36265 31.7765 -0.000152588 39.6263 -0.000152588H140.227C148.077 -0.000152588 154.441 6.36265 154.441 14.2139V114.814C154.441 122.664 148.077 129.028 140.227 129.028Z" fill="white"/>
<path d="M140.227 0.249847H39.6263C31.9146 0.249847 25.662 6.50074 25.662 14.2139V114.814C25.662 122.526 31.9146 128.778 39.6263 128.778H140.227C147.939 128.778 154.191 122.526 154.191 114.814V14.2139C154.191 6.50073 147.939 0.249847 140.227 0.249847ZM140.227 7.26101C144.061 7.26101 147.18 10.38 147.18 14.2139V114.814C147.18 118.648 144.061 121.767 140.227 121.767H39.6263C35.7927 121.767 32.6742 118.648 32.6742 114.814V14.2139C32.6742 10.38 35.7927 7.26101 39.6263 7.26101H140.227Z" fill="white" stroke="#1D4C94" stroke-width="0.5"/>
<path d="M163.327 84.7974H16.5272V39.35H163.327V84.7974Z" fill="#FABF0B"/>
<path d="M51.519 68.2487L60.044 60.5917C60.478 60.1991 60.912 59.7547 61.346 59.2587C61.78 58.7627 61.997 58.1841 61.997 57.5227C61.997 56.7787 61.7283 56.2001 61.191 55.7867C60.6537 55.3527 60.0233 55.1357 59.3 55.1357C58.432 55.1357 57.75 55.4044 57.254 55.9417C56.7787 56.4791 56.51 57.1404 56.448 57.9257L51.798 57.5847C51.86 56.4481 52.0977 55.4664 52.511 54.6397C52.9243 53.7924 53.472 53.0897 54.154 52.5317C54.836 51.9737 55.6317 51.5604 56.541 51.2917C57.471 51.0024 58.4733 50.8577 59.548 50.8577C60.54 50.8577 61.47 51.0024 62.338 51.2917C63.206 51.5604 63.9603 51.9737 64.601 52.5317C65.2417 53.0691 65.7377 53.7511 66.089 54.5777C66.461 55.4044 66.647 56.3654 66.647 57.4607C66.647 58.1634 66.5747 58.8041 66.43 59.3827C66.2853 59.9407 66.0787 60.4574 65.81 60.9327C65.562 61.3874 65.2623 61.8111 64.911 62.2037C64.5597 62.5964 64.1773 62.9787 63.764 63.3507L57.099 69.0857H66.833V73.1777H51.519V68.2487ZM69.3687 62.2037C69.3687 60.9017 69.4824 59.5791 69.7097 58.2357C69.9577 56.8924 70.3814 55.6731 70.9807 54.5777C71.6007 53.4824 72.4377 52.5937 73.4917 51.9117C74.5457 51.2091 75.889 50.8577 77.5217 50.8577C79.1544 50.8577 80.4977 51.2091 81.5517 51.9117C82.6057 52.5937 83.4324 53.4824 84.0317 54.5777C84.6517 55.6731 85.0754 56.8924 85.3027 58.2357C85.5507 59.5791 85.6747 60.9017 85.6747 62.2037C85.6747 63.5057 85.5507 64.8284 85.3027 66.1717C85.0754 67.5151 84.6517 68.7344 84.0317 69.8297C83.4324 70.9251 82.6057 71.8241 81.5517 72.5267C80.4977 73.2087 79.1544 73.5497 77.5217 73.5497C75.889 73.5497 74.5457 73.2087 73.4917 72.5267C72.4377 71.8241 71.6007 70.9251 70.9807 69.8297C70.3814 68.7344 69.9577 67.5151 69.7097 66.1717C69.4824 64.8284 69.3687 63.5057 69.3687 62.2037ZM74.0187 62.2037C74.0187 62.7824 74.0394 63.4747 74.0807 64.2807C74.1427 65.0867 74.2874 65.8617 74.5147 66.6057C74.742 67.3497 75.083 67.9801 75.5377 68.4967C76.013 69.0134 76.6744 69.2717 77.5217 69.2717C78.3484 69.2717 78.9994 69.0134 79.4747 68.4967C79.95 67.9801 80.3014 67.3497 80.5287 66.6057C80.756 65.8617 80.8904 65.0867 80.9317 64.2807C80.9937 63.4747 81.0247 62.7824 81.0247 62.2037C81.0247 61.6251 80.9937 60.9327 80.9317 60.1267C80.8904 59.3207 80.756 58.5457 80.5287 57.8017C80.3014 57.0577 79.95 56.4274 79.4747 55.9107C78.9994 55.3941 78.3484 55.1357 77.5217 55.1357C76.6744 55.1357 76.013 55.3941 75.5377 55.9107C75.083 56.4274 74.742 57.0577 74.5147 57.8017C74.2874 58.5457 74.1427 59.3207 74.0807 60.1267C74.0394 60.9327 74.0187 61.6251 74.0187 62.2037ZM95.6194 56.4377L91.2174 60.3127L88.5824 57.2747L95.7434 51.2297H100.083V73.1777H95.6194V56.4377ZM114.492 65.3347C114.244 65.3967 113.996 65.4484 113.748 65.4897C113.5 65.5311 113.242 65.5517 112.973 65.5517C111.94 65.5517 110.999 65.3657 110.152 64.9937C109.305 64.6217 108.581 64.1154 107.982 63.4747C107.383 62.8341 106.918 62.0797 106.587 61.2117C106.256 60.3231 106.091 59.3827 106.091 58.3907C106.091 57.2541 106.298 56.2311 106.711 55.3217C107.145 54.3917 107.724 53.5961 108.447 52.9347C109.191 52.2734 110.059 51.7671 111.051 51.4157C112.043 51.0437 113.118 50.8577 114.275 50.8577C115.412 50.8577 116.476 51.0437 117.468 51.4157C118.481 51.7671 119.349 52.2734 120.072 52.9347C120.816 53.5961 121.395 54.3917 121.808 55.3217C122.242 56.2311 122.459 57.2541 122.459 58.3907C122.459 59.1761 122.387 59.8994 122.242 60.5607C122.097 61.2014 121.901 61.8111 121.653 62.3897C121.426 62.9684 121.147 63.5264 120.816 64.0637C120.506 64.5804 120.175 65.1177 119.824 65.6757L115.019 73.1777H109.346L114.492 65.3347ZM110.741 58.5767C110.741 59.5687 111.061 60.3954 111.702 61.0567C112.363 61.6974 113.221 62.0177 114.275 62.0177C115.329 62.0177 116.176 61.6974 116.817 61.0567C117.478 60.3954 117.809 59.5687 117.809 58.5767C117.809 57.5847 117.478 56.7684 116.817 56.1277C116.176 55.4664 115.329 55.1357 114.275 55.1357C113.221 55.1357 112.363 55.4664 111.702 56.1277C111.061 56.7684 110.741 57.5847 110.741 58.5767Z" fill="#1D4C94"/>
<path d="M16.5272 84.7966L25.4121 99.4458V84.7966H16.5272Z" fill="#F2561A"/>
<path d="M62.1819 21.9864C61.9474 21.7009 61.6568 21.4817 61.3102 21.3288C60.9737 21.1758 60.5812 21.0994 60.1326 21.0994C59.684 21.0994 59.266 21.186 58.8785 21.3593C58.5013 21.5327 58.1699 21.7774 57.8845 22.0934C57.6092 22.3993 57.39 22.7663 57.2269 23.1945C57.0739 23.6227 56.9975 24.0866 56.9975 24.5862C56.9975 25.096 57.0739 25.565 57.2269 25.9932C57.39 26.4112 57.6092 26.7782 57.8845 27.0943C58.1598 27.4002 58.4809 27.6397 58.8479 27.8131C59.2252 27.9864 59.6279 28.0731 60.0561 28.0731C60.5455 28.0731 60.9788 27.9711 61.356 27.7672C61.7333 27.5633 62.0442 27.2778 62.2889 26.9108L64.277 28.3942C63.8182 29.0365 63.2371 29.5106 62.5336 29.8165C61.8301 30.1223 61.1062 30.2753 60.362 30.2753C59.5157 30.2753 58.7358 30.1427 58.0221 29.8777C57.3084 29.6126 56.6916 29.2353 56.1716 28.746C55.6517 28.2464 55.2438 27.6448 54.9482 26.9414C54.6627 26.2379 54.52 25.4528 54.52 24.5862C54.52 23.7196 54.6627 22.9345 54.9482 22.2311C55.2438 21.5276 55.6517 20.9311 56.1716 20.4417C56.6916 19.9422 57.3084 19.5598 58.0221 19.2948C58.7358 19.0297 59.5157 18.8971 60.362 18.8971C60.6678 18.8971 60.9839 18.9277 61.3102 18.9889C61.6466 19.0399 61.9729 19.1265 62.2889 19.2489C62.6152 19.3712 62.9261 19.5344 63.2218 19.7383C63.5175 19.9422 63.7826 20.192 64.017 20.4876L62.1819 21.9864ZM64.9892 24.5862C64.9892 23.7196 65.132 22.9345 65.4174 22.2311C65.7131 21.5276 66.1209 20.9311 66.6409 20.4417C67.1609 19.9422 67.7777 19.5598 68.4914 19.2948C69.2051 19.0297 69.985 18.8971 70.8312 18.8971C71.6775 18.8971 72.4574 19.0297 73.1711 19.2948C73.8848 19.5598 74.5016 19.9422 75.0216 20.4417C75.5415 20.9311 75.9443 21.5276 76.2297 22.2311C76.5254 22.9345 76.6732 23.7196 76.6732 24.5862C76.6732 25.4528 76.5254 26.2379 76.2297 26.9414C75.9443 27.6448 75.5415 28.2464 75.0216 28.746C74.5016 29.2353 73.8848 29.6126 73.1711 29.8777C72.4574 30.1427 71.6775 30.2753 70.8312 30.2753C69.985 30.2753 69.2051 30.1427 68.4914 29.8777C67.7777 29.6126 67.1609 29.2353 66.6409 28.746C66.1209 28.2464 65.7131 27.6448 65.4174 26.9414C65.132 26.2379 64.9892 25.4528 64.9892 24.5862ZM67.4667 24.5862C67.4667 25.096 67.5432 25.565 67.6961 25.9932C67.8593 26.4112 68.0887 26.7782 68.3843 27.0943C68.68 27.4002 69.0317 27.6397 69.4396 27.8131C69.8576 27.9864 70.3215 28.0731 70.8312 28.0731C71.341 28.0731 71.7998 27.9864 72.2076 27.8131C72.6256 27.6397 72.9825 27.4002 73.2782 27.0943C73.5738 26.7782 73.7981 26.4112 73.9511 25.9932C74.1142 25.565 74.1957 25.096 74.1957 24.5862C74.1957 24.0866 74.1142 23.6227 73.9511 23.1945C73.7981 22.7663 73.5738 22.3993 73.2782 22.0934C72.9825 21.7774 72.6256 21.5327 72.2076 21.3593C71.7998 21.186 71.341 21.0994 70.8312 21.0994C70.3215 21.0994 69.8576 21.186 69.4396 21.3593C69.0317 21.5327 68.68 21.7774 68.3843 22.0934C68.0887 22.3993 67.8593 22.7663 67.6961 23.1945C67.5432 23.6227 67.4667 24.0866 67.4667 24.5862ZM78.2948 19.1724H80.6805V23.2098H85.3144V19.1724H87.7001V30H85.3144V25.3203H80.6805V30H78.2948V19.1724ZM89.318 24.5862C89.318 23.7196 89.4607 22.9345 89.7462 22.2311C90.0419 21.5276 90.4497 20.9311 90.9696 20.4417C91.4896 19.9422 92.1064 19.5598 92.8201 19.2948C93.5338 19.0297 94.3138 18.8971 95.16 18.8971C96.0062 18.8971 96.7862 19.0297 97.4998 19.2948C98.2135 19.5598 98.8303 19.9422 99.3503 20.4417C99.8703 20.9311 100.273 21.5276 100.558 22.2311C100.854 22.9345 101.002 23.7196 101.002 24.5862C101.002 25.4528 100.854 26.2379 100.558 26.9414C100.273 27.6448 99.8703 28.2464 99.3503 28.746C98.8303 29.2353 98.2135 29.6126 97.4998 29.8777C96.7862 30.1427 96.0062 30.2753 95.16 30.2753C94.3138 30.2753 93.5338 30.1427 92.8201 29.8777C92.1064 29.6126 91.4896 29.2353 90.9696 28.746C90.4497 28.2464 90.0419 27.6448 89.7462 26.9414C89.4607 26.2379 89.318 25.4528 89.318 24.5862ZM91.7955 24.5862C91.7955 25.096 91.8719 25.565 92.0249 25.9932C92.188 26.4112 92.4174 26.7782 92.7131 27.0943C93.0087 27.4002 93.3605 27.6397 93.7683 27.8131C94.1863 27.9864 94.6502 28.0731 95.16 28.0731C95.6697 28.0731 96.1285 27.9864 96.5364 27.8131C96.9544 27.6397 97.3112 27.4002 97.6069 27.0943C97.9026 26.7782 98.1269 26.4112 98.2798 25.9932C98.4429 25.565 98.5245 25.096 98.5245 24.5862C98.5245 24.0866 98.4429 23.6227 98.2798 23.1945C98.1269 22.7663 97.9026 22.3993 97.6069 22.0934C97.3112 21.7774 96.9544 21.5327 96.5364 21.3593C96.1285 21.186 95.6697 21.0994 95.16 21.0994C94.6502 21.0994 94.1863 21.186 93.7683 21.3593C93.3605 21.5327 93.0087 21.7774 92.7131 22.0934C92.4174 22.3993 92.188 22.7663 92.0249 23.1945C91.8719 23.6227 91.7955 24.0866 91.7955 24.5862ZM102.624 19.1724H106.814C107.364 19.1724 107.884 19.2285 108.374 19.3406C108.873 19.4426 109.307 19.621 109.674 19.8759C110.051 20.1206 110.347 20.457 110.561 20.8853C110.785 21.3033 110.897 21.8283 110.897 22.4605C110.897 23.2251 110.698 23.8776 110.301 24.418C109.903 24.9481 109.322 25.2846 108.557 25.4273L111.31 30H108.45L106.187 25.672H105.009V30H102.624V19.1724ZM105.009 23.6533H106.416C106.63 23.6533 106.855 23.6482 107.089 23.638C107.334 23.6176 107.553 23.5718 107.747 23.5004C107.94 23.4188 108.098 23.2965 108.221 23.1334C108.353 22.9702 108.42 22.7408 108.42 22.4452C108.42 22.1699 108.364 21.9507 108.251 21.7876C108.139 21.6244 107.997 21.5021 107.823 21.4205C107.65 21.3288 107.451 21.2676 107.227 21.237C107.002 21.2064 106.783 21.1911 106.569 21.1911H105.009V23.6533ZM114.367 21.2829H111.277V19.1724H119.842V21.2829H116.752V30H114.367V21.2829Z" fill="#374041"/>
<path d="M101.256 116.983H78.5979C77.6776 116.983 76.9313 116.237 76.9313 115.317V98.7043C76.9313 97.7836 77.6776 97.0372 78.5979 97.0372H101.256C102.175 97.0372 102.922 97.7836 102.922 98.7043V115.317C102.922 116.237 102.175 116.983 101.256 116.983Z" fill="#4E646B"/>
<path d="M89.1486 107.821L74.3023 100.215C73.0636 99.5792 73.0636 97.8098 74.3023 97.1744L89.1486 89.5695C89.637 89.3188 90.2163 89.3188 90.7061 89.5695L105.551 97.1744C106.79 97.8098 106.79 99.5792 105.551 100.215L90.7061 107.821C90.2163 108.07 89.637 108.07 89.1486 107.821Z" fill="#374041"/>
<path d="M89.7075 98.2982L80.5277 103.369V110.978C80.5277 111.227 80.731 111.43 80.9817 111.43C81.231 111.43 81.4342 111.227 81.4342 110.978V103.903L90.1456 99.0921C90.3646 98.9711 90.4438 98.6944 90.3228 98.4754C90.2018 98.2564 89.9266 98.1772 89.7075 98.2982Z" fill="white"/>
<path d="M80.0751 108.975V113.13C80.0751 113.63 80.4808 114.037 80.9821 114.037C81.4821 114.037 81.8884 113.63 81.8884 113.13V108.975C81.8884 108.474 81.4821 108.069 80.9821 108.069C80.4808 108.069 80.0751 108.474 80.0751 108.975Z" fill="white"/>
<path d="M111.648 101.544H140.945V98.5395H111.648V101.544Z" fill="#B9CFD1"/>
<path d="M111.648 107.554H136.438V104.549H111.648V107.554Z" fill="#B9CFD1"/>
<path d="M111.648 113.564H131.931V110.56H111.648V113.564Z" fill="#B9CFD1"/>
<path d="M39.532 101.544H68.8286V98.5395H39.532V101.544Z" fill="#B9CFD1"/>
<path d="M44.0387 107.554H68.8282V104.549H44.0387V107.554Z" fill="#B9CFD1"/>
<path d="M48.546 113.564H68.8283V110.56H48.546V113.564Z" fill="#B9CFD1"/>
</svg>
