<svg width="149" height="60" viewBox="0 0 149 60" fill="none" xmlns="http://www.w3.org/2000/svg">
<path d="M32.4158 36.887L33.7499 38.2211L37.6081 39.5913L59.1706 33.4615L37.6081 37.7884L46.1177 35.3004L72.2956 24.8077L44.0985 35.3004L45.6129 33.9663L70.8533 17.2355L46.1177 32.6322L45.6129 31.4062L65.9855 12.1514L44.6394 30.7572L41.7187 33.9663L60.9735 6.95912L40.4567 33.4615L40.9254 32.0552L54.8797 3.02884L40.1321 31.4062L40.4567 30.7572L48.173 0L39.1946 30.3966L38.0408 30.1442L39.9158 7.42787L37.6081 29.8557H36.9951L36.0216 9.62739V29.9639L35.5168 30.2884L27.8726 3.53365L34.435 30.3966L34.2187 31.0096L21.0577 5.15624L33.3533 31.6586V32.0552L14.6755 8.11297L32.3437 32.0552H31.6586L9.33893 11.7548L31.6586 33.4615H30.4326L4.97595 17.3077L30.9735 35.3004L25.2043 32.6322L0 23.0769L24.3028 33.4615L27.9447 36.6706L26.3221 37.7884L29.2788 37.3196H31.2259L32.4158 36.887Z" fill="#B39B47" fill-opacity="0.9"/>
<path d="M30.3209 21.5787C29.3351 21.629 28.7001 21.7295 28.4328 21.9138C28.0986 22.1317 27.3969 22.249 26.244 22.2992C25.8429 22.2992 24.5397 23.8409 24.4227 24.3938C24.3559 24.7625 24.0551 25.2149 23.5539 25.7009C23.1194 26.103 22.6182 26.6225 22.4344 26.8403C22.2339 27.0582 21.9498 27.3263 21.766 27.4101C21.5655 27.5441 21.4318 27.8793 21.3483 28.4657L21.2481 29.3203L22.5513 29.2198C23.4703 29.1528 23.8546 29.1695 23.8546 29.3036C23.8546 29.5382 22.685 30.309 21.9498 30.5436C21.1645 30.8117 21.0141 30.996 21.0141 31.7166C21.0141 32.0685 20.9139 32.6214 20.7802 32.9398C20.5463 33.5096 20.5463 33.5431 21.2648 34.5988C21.6491 35.1852 22.0668 35.9561 22.1837 36.2744C22.401 36.9782 22.4511 36.9782 24.3057 36.6263C25.8597 36.3247 26.4612 36.308 26.6283 36.5593C26.812 36.8609 26.3275 37.1626 25.0242 37.548C23.8713 37.8831 23.8045 37.9334 24.1052 38.1512C24.4728 38.4193 26.6617 38.3355 27.9482 38.0172C29.4019 37.6485 29.8697 37.6653 30.2708 38.0339C30.488 38.235 30.9725 38.4361 31.4404 38.4863C32.5598 38.6539 32.7771 38.9053 32.6601 40.0447C32.61 40.5642 32.5097 41.1507 32.4429 41.3518C32.3426 41.7204 32.376 41.7372 33.0611 41.6534C33.4621 41.6031 36.1689 41.4523 39.0595 41.3183C41.9501 41.1842 44.8909 41.0334 45.6093 40.9664C46.3612 40.9161 46.9293 40.9496 46.9795 41.0334C47.2301 41.4355 46.7622 41.7539 45.0245 42.3907C43.9886 42.7761 41.1314 43.815 38.6418 44.7366L34.1305 46.3788L34.1806 47.2502C34.2307 47.9875 34.1806 48.2053 33.7796 48.7248C33.1446 49.5626 33.0277 50.9367 33.5122 51.9086C33.7127 52.2772 34.0135 53.4335 34.214 54.4891C34.4145 55.5448 34.6986 56.5837 34.8322 56.7848C35.0662 57.1702 35.133 57.187 36.4028 57.0697C37.539 56.9691 37.7228 56.9859 37.7228 57.2037C37.7228 57.5221 37.5557 57.6394 36.4864 58.0751C35.4672 58.494 35.1831 59.1308 35.7679 59.667C36.1355 60.0189 36.8039 60.1194 36.9709 59.8346C37.0211 59.734 37.4889 59.667 37.9902 59.667C39.1097 59.667 39.895 59.2816 40.8307 58.2929C42.1841 56.8351 42.5182 56.3491 42.6352 55.6789C42.7187 55.1426 42.8524 54.9248 43.22 54.7405C43.8048 54.4221 43.9051 54.1875 43.9051 53.0313C43.9051 52.0091 43.8883 52.0259 45.7263 50.5345C46.7957 49.6799 46.9293 49.4956 46.8458 49.1269C46.7957 48.8923 46.6954 48.3226 46.6453 47.8702L46.5283 47.0658L44.824 47.1831C43.8549 47.2502 43.0696 47.2334 43.0195 47.1496C42.8357 46.848 43.22 46.5631 44.5734 46.0437L45.9769 45.4907L45.9936 44.8037C46.0104 44.2172 46.1607 43.9658 47.1465 42.8431C47.7815 42.1393 48.7172 41.2847 49.2184 40.9328C49.9202 40.4637 50.2711 40.0615 50.6888 39.3074C50.9728 38.7545 51.2736 38.1344 51.3237 37.9334L51.4407 37.548L47.1298 37.6485C44.7572 37.6988 41.8666 37.7826 40.697 37.8496C36.6368 38.0674 36.9709 37.749 42.1674 36.375C46.3278 35.269 47.581 34.9004 47.8149 34.6825C47.8984 34.6155 47.7314 34.3139 47.4139 33.9955C46.5617 33.1242 45.7764 31.7501 45.6428 30.929C45.5926 30.5101 45.3921 29.9739 45.2083 29.756C44.9243 29.3874 44.7906 29.3371 44.2726 29.4376C43.9218 29.4879 43.3871 29.622 43.0696 29.7393C42.7522 29.8566 42.3846 29.9236 42.2676 29.8901C42.1506 29.8398 41.5491 29.9236 40.9309 30.0744C40.3127 30.2085 37.8899 30.7112 35.5507 31.1636C33.2115 31.6328 30.2039 32.236 28.8672 32.5209C25.9766 33.1242 25.6926 33.1409 25.6926 32.7052C25.6926 32.4539 25.9766 32.2863 26.9123 31.9679C27.5639 31.7501 28.65 31.3647 29.2849 31.1133C29.9366 30.862 30.6885 30.5939 30.9558 30.5101C31.2399 30.4263 31.6074 30.2755 31.7912 30.1917C31.975 30.1247 32.5766 29.8901 33.1279 29.689C33.6793 29.4879 34.4479 29.1695 34.8489 28.9852C35.2332 28.8176 35.6677 28.6668 35.8013 28.6668C35.935 28.6668 36.336 28.516 36.6702 28.3317C37.0211 28.1474 37.4221 27.9966 37.5557 27.9966C37.6894 27.9966 38.0403 27.8793 38.3076 27.7284C38.5917 27.5776 39.1932 27.3598 39.6778 27.2257C40.1456 27.1084 40.7805 26.8571 41.098 26.656C41.3988 26.4717 41.8165 26.3209 42.0337 26.3209C42.8858 26.3209 43.4038 25.6171 42.8691 25.1982C42.6352 25.0138 41.4489 24.8128 40.2626 24.7457C39.8448 24.7122 39.3436 24.5446 39.0428 24.3268C38.458 23.8911 37.5557 23.9582 37.5557 24.4609C37.5557 24.6117 37.4555 24.8798 37.3385 25.0474C37.138 25.3155 37.0879 25.3155 36.4697 25.0474C36.1021 24.8965 35.6008 24.6117 35.3669 24.4106C35.133 24.2095 34.5148 23.9414 33.9968 23.8073C33.1614 23.6063 32.9441 23.623 32.1923 23.8576C31.2566 24.1592 29.5356 24.243 29.5356 23.9749C29.5356 23.7571 30.9558 22.9527 31.9249 22.6176C33.3452 22.1317 33.6459 21.4279 32.4095 21.4949C32.0753 21.5117 31.1229 21.5619 30.3209 21.5787Z" fill="#0258D8"/>
<path fill-rule="evenodd" clip-rule="evenodd" d="M36.0215 15.6493C26.4216 15.6493 18.5696 23.6478 18.5696 33.6017C18.5696 36.4945 19.2336 39.2221 20.4106 41.6368L17.5583 43.0271C16.1738 40.1869 15.3965 36.9845 15.3965 33.6017C15.3965 21.9735 24.592 12.4762 36.0215 12.4762C47.4509 12.4762 56.6464 21.9735 56.6464 33.6017C56.6464 35.1391 56.4859 36.6398 56.1804 38.0867L53.0757 37.4312C53.336 36.1987 53.4733 34.9176 53.4733 33.6017C53.4733 23.6478 45.6213 15.6493 36.0215 15.6493Z" fill="#B39B47"/>
<path d="M142.321 39.0907H145.522C145.969 39.0907 146.391 39.1313 146.789 39.2124C147.186 39.2936 147.531 39.4356 147.823 39.6385C148.124 39.8333 148.359 40.1012 148.53 40.4421C148.708 40.7748 148.797 41.1969 148.797 41.7082C148.797 42.2114 148.716 42.6335 148.554 42.9743C148.392 43.3152 148.168 43.5871 147.884 43.79C147.6 43.9929 147.263 44.139 146.874 44.2283C146.484 44.3095 146.062 44.35 145.608 44.35H144.22V47.7102H142.321V39.0907ZM144.22 42.743H145.486C145.656 42.743 145.819 42.7268 145.973 42.6943C146.135 42.6619 146.277 42.6091 146.399 42.5361C146.529 42.4549 146.63 42.3494 146.703 42.2195C146.785 42.0815 146.825 41.9111 146.825 41.7082C146.825 41.4891 146.772 41.3146 146.667 41.1847C146.569 41.0467 146.44 40.9412 146.277 40.8682C146.123 40.7951 145.949 40.7505 145.754 40.7342C145.559 40.7099 145.372 40.6977 145.194 40.6977H144.22V42.743Z" fill="#0258D8"/>
<path d="M138.694 39.0907H140.593V47.7102H138.694V39.0907Z" fill="#0258D8"/>
<path d="M129.48 39.0907H131.379V42.3047H135.068V39.0907H136.967V47.7102H135.068V43.9848H131.379V47.7102H129.48V39.0907Z" fill="#0258D8"/>
<path d="M126.751 41.1971C126.596 41.0023 126.385 40.8603 126.117 40.771C125.858 40.6736 125.61 40.6249 125.375 40.6249C125.237 40.6249 125.095 40.6412 124.949 40.6736C124.803 40.7061 124.665 40.7589 124.535 40.8319C124.405 40.8968 124.299 40.9861 124.218 41.0997C124.137 41.2134 124.097 41.3513 124.097 41.5137C124.097 41.7734 124.194 41.9722 124.389 42.1102C124.583 42.2482 124.827 42.3659 125.119 42.4633C125.419 42.5607 125.74 42.6581 126.081 42.7555C126.422 42.8529 126.738 42.9908 127.031 43.1694C127.331 43.3479 127.578 43.5874 127.773 43.8877C127.968 44.188 128.065 44.5897 128.065 45.0929C128.065 45.5718 127.976 45.9898 127.798 46.3469C127.619 46.704 127.375 47.0003 127.067 47.2356C126.767 47.471 126.414 47.6455 126.008 47.7591C125.61 47.8728 125.188 47.9296 124.742 47.9296C124.182 47.9296 123.662 47.8444 123.183 47.6739C122.705 47.5035 122.258 47.2275 121.844 46.8461L123.196 45.3608C123.39 45.6205 123.634 45.8234 123.926 45.9695C124.226 46.1075 124.535 46.1765 124.851 46.1765C125.006 46.1765 125.16 46.1602 125.314 46.1278C125.476 46.0872 125.618 46.0304 125.74 45.9573C125.87 45.8843 125.971 45.7909 126.044 45.6773C126.126 45.5637 126.166 45.4298 126.166 45.2756C126.166 45.0158 126.065 44.8129 125.862 44.6668C125.667 44.5126 125.419 44.3828 125.119 44.2773C124.819 44.1718 124.494 44.0662 124.145 43.9607C123.796 43.8552 123.472 43.7132 123.171 43.5346C122.871 43.3561 122.619 43.1207 122.416 42.8285C122.222 42.5363 122.124 42.1508 122.124 41.6719C122.124 41.2093 122.214 40.8035 122.392 40.4545C122.579 40.1055 122.822 39.8133 123.123 39.5779C123.431 39.3426 123.784 39.1681 124.182 39.0544C124.579 38.9327 124.989 38.8718 125.411 38.8718C125.898 38.8718 126.369 38.9408 126.824 39.0788C127.278 39.2168 127.688 39.4481 128.053 39.7727L126.751 41.1971Z" fill="#0258D8"/>
<path d="M109.414 39.0907H111.484L112.86 44.6179H112.884L114.686 39.0907H116.451L118.241 44.764H118.265L119.714 39.0907H121.637L119.117 47.7102H117.425L115.526 41.7447H115.502L113.602 47.7102H111.971L109.414 39.0907Z" fill="#0258D8"/>
<path d="M99.7231 43.4007C99.7231 42.7108 99.8368 42.0859 100.064 41.5258C100.299 40.9658 100.624 40.491 101.038 40.1014C101.452 39.7037 101.943 39.3994 102.511 39.1884C103.079 38.9773 103.7 38.8718 104.374 38.8718C105.047 38.8718 105.668 38.9773 106.236 39.1884C106.805 39.3994 107.296 39.7037 107.71 40.1014C108.123 40.491 108.444 40.9658 108.671 41.5258C108.907 42.0859 109.024 42.7108 109.024 43.4007C109.024 44.0906 108.907 44.7155 108.671 45.2756C108.444 45.8356 108.123 46.3144 107.71 46.7121C107.296 47.1017 106.805 47.402 106.236 47.6131C105.668 47.8241 105.047 47.9296 104.374 47.9296C103.7 47.9296 103.079 47.8241 102.511 47.6131C101.943 47.402 101.452 47.1017 101.038 46.7121C100.624 46.3144 100.299 45.8356 100.064 45.2756C99.8368 44.7155 99.7231 44.0906 99.7231 43.4007ZM101.695 43.4007C101.695 43.8065 101.756 44.1799 101.878 44.5208C102.008 44.8535 102.19 45.1457 102.426 45.3973C102.661 45.6408 102.941 45.8315 103.266 45.9695C103.599 46.1075 103.968 46.1765 104.374 46.1765C104.78 46.1765 105.145 46.1075 105.469 45.9695C105.802 45.8315 106.086 45.6408 106.322 45.3973C106.557 45.1457 106.736 44.8535 106.857 44.5208C106.987 44.1799 107.052 43.8065 107.052 43.4007C107.052 43.003 106.987 42.6337 106.857 42.2928C106.736 41.952 106.557 41.6598 106.322 41.4163C106.086 41.1647 105.802 40.9699 105.469 40.8319C105.145 40.6939 104.78 40.6249 104.374 40.6249C103.968 40.6249 103.599 40.6939 103.266 40.8319C102.941 40.9699 102.661 41.1647 102.426 41.4163C102.19 41.6598 102.008 41.952 101.878 42.2928C101.756 42.6337 101.695 43.003 101.695 43.4007Z" fill="#0258D8"/>
<path d="M93.7197 39.0907H95.6189V45.9571H99.1373V47.7102H93.7197V39.0907Z" fill="#0258D8"/>
<path d="M87.1807 39.0907H89.0799V45.9571H92.5983V47.7102H87.1807V39.0907Z" fill="#0258D8"/>
<path d="M79.5122 39.0907H85.3681V40.8438H81.4114V42.4508H85.149V44.2039H81.4114V45.9571H85.5872V47.7102H79.5122V39.0907Z" fill="#0258D8"/>
<path d="M72.2957 39.0907H78.0785V40.8438H74.1949V42.5969H77.7863V44.35H74.1949V47.7102H72.2957V39.0907Z" fill="#0258D8"/>
<path d="M136.431 28.0136H144.264V31.8787H136.431V28.0136ZM132.411 34.842L138.621 17.2943H143.027L148.799 34.842H144.599L140.064 20.1545H141.584L136.585 34.842H132.411Z" fill="#0258D8"/>
<path d="M118.647 34.842V17.2943H125.141C126.412 17.2943 127.554 17.5434 128.568 18.0416C129.581 18.5226 130.389 19.2355 130.99 20.1803C131.591 21.1079 131.892 22.2331 131.892 23.5558C131.892 24.8957 131.591 26.0295 130.99 26.9571C130.389 27.8848 129.581 28.5891 128.568 29.0701C127.554 29.5511 126.412 29.7916 125.141 29.7916H121.868V25.7718H124.909C125.785 25.7718 126.455 25.5829 126.919 25.2049C127.4 24.827 127.64 24.2773 127.64 23.5558C127.64 22.8343 127.4 22.2846 126.919 21.9067C126.455 21.5288 125.785 21.3398 124.909 21.3398H121.842L122.822 20.438V34.842H118.647ZM127.511 34.842L123.904 27.7559H128.465L132.072 34.842H127.511Z" fill="#0258D8"/>
<path d="M104.876 28.0136H112.709V31.8787H104.876V28.0136ZM100.856 34.842L107.066 17.2943H111.472L117.244 34.842H113.044L108.509 20.1545H110.029L105.03 34.842H100.856Z" fill="#0258D8"/>
<path d="M78.8923 34.842L81.9587 17.2943H85.7207L89.7147 29.0185H89.4313L93.4252 17.2943H97.1615L100.228 34.842H96.0793L94.9455 27.189C94.8081 26.1927 94.6707 25.1964 94.5332 24.2C94.413 23.2037 94.3099 22.2073 94.224 21.211H95.3836C95.1259 22.2417 94.8768 23.238 94.6363 24.2C94.3958 25.162 94.1124 26.1326 93.786 27.1117L91.2092 34.6874H87.9367L85.3342 27.1117C85.0078 26.1326 84.7158 25.162 84.4581 24.2C84.2176 23.238 83.9771 22.2417 83.7366 21.211H84.9219C84.8189 22.2073 84.7072 23.2037 84.587 24.2C84.4667 25.1964 84.3293 26.1927 84.1747 27.189L83.0409 34.842H78.8923Z" fill="#0258D8"/>
<path d="M77.1748 34.842H73.0005V17.2943H77.1748V34.842Z" fill="#0258D8"/>
</svg>
