<svg width="110" height="111" viewBox="0 0 110 111" fill="none" xmlns="http://www.w3.org/2000/svg">
<path d="M109.27 46.8677L98.3043 24.9279C97.9003 24.1203 97.3412 23.4003 96.659 22.8089C95.9767 22.2174 95.1846 21.7662 94.3279 21.4809C93.4713 21.1956 92.5668 21.0818 91.6661 21.1461C90.7655 21.2104 89.8863 21.4515 89.0789 21.8556L78.3925 27.1966L55.8812 21.2412C55.3036 21.0908 54.6971 21.0908 54.1195 21.2412L31.6082 27.1966L20.9218 21.8556C20.1144 21.4515 19.2352 21.2104 18.3346 21.1461C17.434 21.0818 16.5295 21.1956 15.6728 21.4809C14.8161 21.7662 14.024 22.2174 13.3418 22.8089C12.6595 23.4003 12.1004 24.1203 11.6965 24.9279L0.73083 46.8634C0.326735 47.6709 0.0856555 48.55 0.0213592 49.4507C-0.0429372 50.3513 0.0708089 51.2558 0.356102 52.1125C0.641394 52.9691 1.09265 53.7612 1.68409 54.4435C2.27553 55.1258 2.99557 55.6848 3.8031 56.0888L15.4047 61.8939L39.248 78.9224C39.5993 79.1724 39.9943 79.3545 40.4125 79.4595L67.9125 86.3345C68.4884 86.4789 69.0919 86.4717 69.6642 86.3136C70.2365 86.1555 70.758 85.8518 71.1781 85.4322L94.841 61.765L106.193 56.0888C107.823 55.273 109.062 53.8434 109.638 52.1142C110.214 50.3851 110.08 48.498 109.266 46.8677H109.27ZM85.6843 61.2064L70.8988 49.3642C70.2364 48.8337 69.4012 48.567 68.554 48.6154C67.7068 48.6638 66.9074 49.0239 66.3097 49.6263C58.657 57.3349 50.1277 56.3595 44.6879 52.922L63.2675 34.8751H76.9359L88.6277 58.2544L85.6843 61.2064ZM17.8453 28.0001L26.641 32.3915L15.6539 54.3271L6.87536 49.94L17.8453 28.0001ZM67.689 79.1888L42.7199 72.9497L21.5793 57.8505L33.6105 33.788L55.0004 28.1204L59.2113 29.2333L39.8754 48.0021L39.841 48.0408C39.1131 48.7686 38.558 49.6506 38.2166 50.6217C37.8751 51.5928 37.7561 52.6282 37.8683 53.6514C37.9805 54.6746 38.321 55.6596 38.8647 56.5336C39.4084 57.4076 40.1415 58.1484 41.0097 58.7013C49.8441 64.3431 60.5047 63.4279 68.9007 56.5529L80.7816 66.0962L67.689 79.1888ZM94.3297 54.3228L83.364 32.4087L92.1554 28.0001L103.125 49.94L94.3297 54.3228ZM56.6246 94.1419C56.4389 94.8849 56.0104 95.5445 55.4071 96.0163C54.8038 96.488 54.0603 96.7448 53.2945 96.7458C53.0121 96.7455 52.7307 96.7108 52.4566 96.6427L34.5515 92.1654C34.1328 92.062 33.7375 91.8797 33.3871 91.6283L22.0648 83.5415C21.3686 82.9949 20.9101 82.2009 20.7848 81.3247C20.6594 80.4485 20.8769 79.5577 21.3919 78.8378C21.9069 78.1179 22.6797 77.6244 23.5494 77.4601C24.4192 77.2958 25.3188 77.4733 26.0609 77.9556L36.8504 85.6642L54.141 89.9783C55.0252 90.1995 55.7854 90.7628 56.2544 91.5444C56.7234 92.326 56.8627 93.2619 56.6418 94.1462L56.6246 94.1419Z" fill="#B39B47"/>
<path opacity="0.1" d="M105.416 69.3659C105.416 96.5483 75.3428 98.4688 50.3712 98.4688C25.3997 98.4688 5.15625 86.7047 5.15625 59.5224C5.15625 32.34 22.0627 5.5966 56.662 14.1562C95.9794 32.5596 107.775 46.683 105.416 69.3659Z" fill="#B39B47"/>
</svg>
