<svg width="110" height="111" viewBox="0 0 110 111" fill="none" xmlns="http://www.w3.org/2000/svg">
<path opacity="0.1" d="M105.416 63.78C105.416 90.9623 75.3428 92.8828 50.3712 92.8828C25.3997 92.8828 5.15625 81.1188 5.15625 53.9364C5.15625 26.7541 22.0627 0.0106597 56.662 8.57028C95.9794 26.9737 107.775 41.0971 105.416 63.78Z" fill="#B39B47"/>
<path d="M49.8438 15.9688H17.1875C16.2422 15.9688 15.4688 16.7422 15.4688 17.6875V50.3438C15.4688 51.2891 16.2422 52.0625 17.1875 52.0625H49.8438C50.7891 52.0625 51.5625 51.2891 51.5625 50.3438V17.6875C51.5625 16.7422 50.7891 15.9688 49.8438 15.9688ZM44.2578 44.7578H22.7734V23.2734H44.2578V44.7578ZM92.8125 15.9688H60.1562C59.2109 15.9688 58.4375 16.7422 58.4375 17.6875V50.3438C58.4375 51.2891 59.2109 52.0625 60.1562 52.0625H92.8125C93.7578 52.0625 94.5312 51.2891 94.5312 50.3438V17.6875C94.5312 16.7422 93.7578 15.9688 92.8125 15.9688ZM87.2266 44.7578H65.7422V23.2734H87.2266V44.7578ZM92.8125 58.9375H60.1562C59.2109 58.9375 58.4375 59.7109 58.4375 60.6562V93.3125C58.4375 94.2578 59.2109 95.0312 60.1562 95.0312H92.8125C93.7578 95.0312 94.5312 94.2578 94.5312 93.3125V60.6562C94.5312 59.7109 93.7578 58.9375 92.8125 58.9375ZM87.2266 87.7266H65.7422V66.2422H87.2266V87.7266ZM45.5469 76.9844H31.7969V63.2344C31.7969 62.7617 31.4102 62.375 30.9375 62.375H25.7812C25.3086 62.375 24.9219 62.7617 24.9219 63.2344V76.9844H11.1719C10.6992 76.9844 10.3125 77.3711 10.3125 77.8438V83C10.3125 83.4727 10.6992 83.8594 11.1719 83.8594H24.9219V97.6094C24.9219 98.082 25.3086 98.4688 25.7812 98.4688H30.9375C31.4102 98.4688 31.7969 98.082 31.7969 97.6094V83.8594H45.5469C46.0195 83.8594 46.4062 83.4727 46.4062 83V77.8438C46.4062 77.3711 46.0195 76.9844 45.5469 76.9844Z" fill="#B39B47"/>
</svg>
