<svg width="60" height="60" viewBox="0 0 60 60" fill="none" xmlns="http://www.w3.org/2000/svg">
<path d="M30 6.09375C25.2718 6.09375 20.6498 7.49583 16.7184 10.1227C12.787 12.7495 9.72292 16.4832 7.91352 20.8515C6.10411 25.2198 5.63068 30.0265 6.55311 34.6639C7.47554 39.3012 9.75239 43.5609 13.0957 46.9043C16.4391 50.2476 20.6988 52.5245 25.3361 53.4469C29.9735 54.3693 34.7802 53.8959 39.1485 52.0865C43.5168 50.2771 47.2505 47.213 49.8773 43.2816C52.5042 39.3502 53.9063 34.7282 53.9063 30C53.8988 23.662 51.3777 17.5856 46.8961 13.104C42.4144 8.62227 36.3381 6.10119 30 6.09375ZM30 8.90625C34.1736 8.9019 38.2537 10.1423 41.7188 12.4688V17.3438C41.7193 17.4563 41.6794 17.5653 41.6063 17.6508L36.4102 23.6719C36.3354 23.7591 36.2311 23.8158 36.1172 23.8312L28.7414 24.8438C28.6223 24.86 28.5014 24.8298 28.4039 24.7594L28.3477 24.7219L23.7305 21.7008C23.373 21.4481 22.9685 21.2696 22.541 21.1757C22.1134 21.0817 21.6714 21.0743 21.2409 21.1538C20.8104 21.2333 20.4002 21.3981 20.0344 21.6386C19.6686 21.879 19.3546 22.1902 19.1109 22.5539L14.1891 29.8898C13.8307 30.4245 13.6383 31.0532 13.6359 31.6969L13.5938 40.1836C13.5934 40.2608 13.5739 40.3367 13.5371 40.4046C13.5003 40.4725 13.4473 40.5302 13.3828 40.5727L12.2109 41.3391C10.1782 38.1504 9.03997 34.4739 8.91548 30.6944C8.79099 26.9149 9.6848 23.1715 11.5033 19.856C13.3219 16.5404 15.9983 13.7747 19.2523 11.8484C22.5064 9.92202 26.2185 8.90585 30 8.90625ZM13.8938 43.6055L14.932 42.9258C15.3833 42.628 15.754 42.2234 16.0112 41.7479C16.2684 41.2724 16.4041 40.7406 16.4063 40.2L16.4555 31.7086C16.4562 31.617 16.483 31.5276 16.5328 31.4508L21.4547 24.1148C21.4897 24.0623 21.5349 24.0174 21.5877 23.9827C21.6404 23.9481 21.6996 23.9245 21.7617 23.9133C21.8236 23.9024 21.887 23.904 21.9482 23.9181C22.0094 23.9322 22.0671 23.9585 22.118 23.9953L22.1742 24.0328L26.7914 27.0539C27.471 27.5368 28.3096 27.7414 29.1352 27.6258L36.5109 26.6273C37.3058 26.5196 38.0337 26.1244 38.557 25.5164L43.7531 19.4789C44.2586 18.8826 44.5345 18.1254 44.5313 17.3438V14.7234C47.4988 17.5412 49.5816 21.162 50.5256 25.1438C51.4695 29.1256 51.2337 33.2961 49.8469 37.1461L45.5344 33.2039C45.0735 32.7822 44.5018 32.5009 43.8865 32.3929C43.2712 32.285 42.6379 32.3549 42.061 32.5945L34.9219 35.5617C34.3997 35.7813 33.9428 36.1314 33.5948 36.5783C33.2467 37.0252 33.0194 37.554 32.9344 38.1141L32.3766 41.9086C32.259 42.7077 32.4403 43.522 32.8857 44.1958C33.3311 44.8695 34.0094 45.3553 34.7906 45.5602L39.8203 46.875C39.9009 46.8975 39.9743 46.9403 40.0336 46.9992L41.0133 47.9789C36.7176 50.6158 31.6186 51.6246 26.6424 50.8221C21.6662 50.0196 17.1428 47.4591 13.8938 43.6055ZM43.3359 46.3312L42.0258 45.0164C41.6137 44.6039 41.0992 44.3086 40.5352 44.1609L35.5055 42.8414C35.3937 42.8121 35.2968 42.7425 35.2332 42.646C35.1696 42.5496 35.1439 42.433 35.1609 42.3187L35.7211 38.5242C35.7327 38.4439 35.7649 38.3681 35.8146 38.304C35.8644 38.2399 35.9298 38.1898 36.0047 38.1586L43.1414 35.1914C43.2239 35.157 43.3145 35.1469 43.4025 35.1622C43.4905 35.1776 43.5724 35.2178 43.6383 35.2781L48.6445 39.8578C47.3211 42.3459 45.5167 44.5463 43.3359 46.3312Z" fill="#B09945"/>
</svg>
