<svg width="100" height="100" viewBox="0 0 100 100" fill="none" xmlns="http://www.w3.org/2000/svg">
<path opacity="0.2" d="M89.875 30.5699L77.4375 41.0699L81.25 56.7692C81.3433 57.1789 81.3136 57.6071 81.1644 58C81.0152 58.3929 80.7533 58.733 80.4115 58.9775C80.0697 59.222 79.6633 59.3602 79.2433 59.3745C78.8233 59.3889 78.4084 59.2789 78.0508 59.0582L64.0625 50.6481L50.0859 59.0582C49.7282 59.2789 49.3133 59.3889 48.8933 59.3745C48.4733 59.3602 48.0669 59.222 47.7251 58.9775C47.3834 58.733 47.1214 58.3929 46.9723 58C46.8231 57.6071 46.7933 57.1789 46.8867 56.7692L50.6875 41.0699L38.25 30.5699C37.9295 30.2994 37.6974 29.9392 37.5833 29.5356C37.4693 29.132 37.4786 28.7035 37.6101 28.3053C37.7416 27.907 37.9892 27.5572 38.3211 27.3009C38.6531 27.0446 39.0541 26.8934 39.4726 26.8668L55.7968 25.5739L62.0859 10.6754C62.2523 10.2893 62.5282 9.96036 62.8795 9.72926C63.2307 9.49816 63.642 9.375 64.0625 9.375C64.4829 9.375 64.8942 9.49816 65.2455 9.72926C65.5967 9.96036 65.8726 10.2893 66.039 10.6754L72.3281 25.5739L88.6718 26.8668C89.0888 26.8969 89.4873 27.0506 89.8164 27.3083C90.1455 27.566 90.3902 27.916 90.5194 28.3136C90.6486 28.7111 90.6562 29.1381 90.5414 29.5401C90.4267 29.942 90.1946 30.3006 89.875 30.5699Z" fill="#1D4C94"/>
<path d="M93.4961 27.3748C93.1778 26.3815 92.5701 25.5058 91.751 24.86C90.9319 24.2142 89.9387 23.8276 88.8985 23.7498L74.4688 22.6092L68.918 9.46077C68.5125 8.5086 67.8361 7.69666 66.9728 7.12596C66.1095 6.55526 65.0974 6.25098 64.0625 6.25098C63.0276 6.25098 62.0156 6.55526 61.1523 7.12596C60.289 7.69666 59.6125 8.5086 59.2071 9.46077L53.6563 22.6092L39.2266 23.7498C38.1904 23.8262 37.2004 24.2094 36.3829 24.8506C35.5654 25.4918 34.9574 26.362 34.6364 27.3502C34.3153 28.3383 34.2959 29.3997 34.5805 30.399C34.8651 31.3982 35.4409 32.29 36.2344 32.9608L47.1953 42.2108L43.8516 56.035C43.6084 57.0362 43.6679 58.087 44.0225 59.0543C44.3772 60.0216 45.0111 60.8619 45.8438 61.4686C46.6842 62.0881 47.6896 62.4444 48.7326 62.4924C49.7756 62.5403 50.8094 62.2779 51.7032 61.7381L64.0625 54.2967L76.4258 61.742C77.3201 62.2803 78.3536 62.5419 79.3963 62.4939C80.4389 62.4459 81.4441 62.0906 82.2852 61.4725C83.1164 60.8646 83.7489 60.0241 84.1028 59.057C84.4566 58.0899 84.516 57.0397 84.2735 56.0389L80.9297 42.2147L91.8907 32.9647C92.6844 32.2987 93.2613 31.4109 93.5473 30.415C93.8333 29.4191 93.8155 28.3605 93.4961 27.3748ZM75.4219 38.6717C74.9784 39.0465 74.6481 39.5374 74.4681 40.0893C74.288 40.6413 74.2652 41.2325 74.4024 41.7967L77.6367 55.16L65.6758 47.9686C65.1893 47.6758 64.6323 47.5211 64.0645 47.5211C63.4967 47.5211 62.9396 47.6758 62.4532 47.9686L50.4922 55.1678L53.7266 41.7967C53.8633 41.2322 53.8399 40.6407 53.6591 40.0887C53.4784 39.5367 53.1473 39.046 52.7032 38.6717L42.1875 29.7889L56.0625 28.6912C56.6336 28.6459 57.1812 28.4445 57.6455 28.109C58.1098 27.7735 58.473 27.3168 58.6953 26.7889L64.0625 14.0272L69.4492 26.7889C69.6716 27.3168 70.0348 27.7735 70.4991 28.109C70.9634 28.4445 71.511 28.6459 72.0821 28.6912L85.961 29.7889L75.4219 38.6717ZM34.4063 48.117L11.586 70.9608C10.9996 71.5471 10.2043 71.8766 9.37503 71.8766C8.54577 71.8766 7.75047 71.5471 7.16409 70.9608C6.57771 70.3744 6.24829 69.5791 6.24829 68.7498C6.24829 67.9206 6.57771 67.1253 7.16409 66.5389L29.9961 43.7069C30.5825 43.1205 31.3778 42.7911 32.2071 42.7911C33.0363 42.7911 33.8316 43.1205 34.418 43.7069C35.0044 44.2932 35.3338 45.0885 35.3338 45.9178C35.3338 46.7471 35.0044 47.5424 34.418 48.1287L34.4063 48.117ZM38.6289 67.5975C39.2145 68.1835 39.5435 68.978 39.5435 69.8065C39.5435 70.6349 39.2145 71.4295 38.6289 72.0155L17.836 92.8358C17.5456 93.1261 17.2009 93.3564 16.8216 93.5136C16.4422 93.6707 16.0356 93.7516 15.625 93.7516C15.2144 93.7516 14.8078 93.6707 14.4285 93.5136C14.0491 93.3564 13.7044 93.1261 13.4141 92.8358C13.1237 92.5454 12.8934 92.2007 12.7363 91.8214C12.5792 91.442 12.4983 91.0354 12.4983 90.6248C12.4983 90.2142 12.5792 89.8076 12.7363 89.4283C12.8934 89.0489 13.1237 88.7042 13.4141 88.4139L34.2227 67.6092C34.8087 67.0236 35.6032 66.6946 36.4317 66.6946C37.2601 66.6946 38.0547 67.0236 38.6407 67.6092L38.6289 67.5975ZM67.1446 67.2069C67.4351 67.4971 67.6656 67.8417 67.8229 68.2211C67.9801 68.6005 68.0611 69.0071 68.0611 69.4178C68.0611 69.8285 67.9801 70.2351 67.8229 70.6145C67.6656 70.9939 67.4351 71.3385 67.1446 71.6287L45.9414 92.8319C45.3551 93.4182 44.5598 93.7477 43.7305 93.7477C42.9012 93.7477 42.1059 93.4182 41.5196 92.8319C40.9332 92.2455 40.6038 91.4502 40.6038 90.6209C40.6038 89.7917 40.9332 88.9964 41.5196 88.41L62.7266 67.2069C63.0174 66.9142 63.3632 66.682 63.7441 66.5237C64.1251 66.3654 64.5336 66.2841 64.9462 66.2844C65.3587 66.2848 65.7671 66.3669 66.1477 66.5258C66.5284 66.6848 66.8738 66.9176 67.1641 67.2108L67.1446 67.2069Z" fill="#1D4C94"/>
</svg>
