<svg width="100" height="100" viewBox="0 0 100 100" fill="none" xmlns="http://www.w3.org/2000/svg">
<path opacity="0.2" d="M81.25 40.6248C81.2542 45.3598 80.1804 50.0336 78.1101 54.292C76.0398 58.5504 73.0272 62.2817 69.3008 65.2029C68.1628 66.0849 67.2404 67.2144 66.6035 68.5057C65.9667 69.797 65.632 71.2163 65.625 72.6561V74.9998C65.625 75.8286 65.2958 76.6235 64.7097 77.2095C64.1236 77.7956 63.3288 78.1248 62.5 78.1248H37.5C36.6712 78.1248 35.8763 77.7956 35.2903 77.2095C34.7042 76.6235 34.375 75.8286 34.375 74.9998V72.6561C34.3735 71.2242 34.0455 69.8115 33.416 68.5254C32.7865 67.2394 31.8721 66.1137 30.7422 65.2342C27.0272 62.3321 24.0182 58.6259 21.9412 54.3941C19.8641 50.1622 18.7731 45.5147 18.75 40.8006C18.6562 23.8631 32.3125 9.76544 49.2461 9.37482C53.4129 9.27426 57.5577 10.0083 61.4366 11.5337C65.3155 13.059 68.85 15.345 71.8322 18.2569C74.8143 21.1688 77.1838 24.6478 78.8012 28.4892C80.4186 32.3306 81.2512 36.4568 81.25 40.6248Z" fill="#1D4C94"/>
<path d="M68.75 90.6252C68.75 91.454 68.4208 92.2489 67.8347 92.8349C67.2487 93.421 66.4538 93.7502 65.625 93.7502H34.375C33.5462 93.7502 32.7514 93.421 32.1653 92.8349C31.5793 92.2489 31.25 91.454 31.25 90.6252C31.25 89.7964 31.5793 89.0015 32.1653 88.4155C32.7514 87.8295 33.5462 87.5002 34.375 87.5002H65.625C66.4538 87.5002 67.2487 87.8295 67.8347 88.4155C68.4208 89.0015 68.75 89.7964 68.75 90.6252ZM84.375 40.6252C84.3885 45.8348 83.2116 50.9785 80.9342 55.6639C78.6569 60.3493 75.3392 64.4525 71.2344 67.6604C70.4669 68.2487 69.844 69.0047 69.4134 69.8706C68.9828 70.7365 68.7559 71.6894 68.75 72.6565V75.0002C68.75 76.6578 68.0915 78.2475 66.9194 79.4196C65.7473 80.5917 64.1576 81.2502 62.5 81.2502H37.5C35.8424 81.2502 34.2527 80.5917 33.0806 79.4196C31.9085 78.2475 31.25 76.6578 31.25 75.0002V72.6565C31.2494 71.701 31.0297 70.7584 30.6078 69.9011C30.1859 69.0438 29.5731 68.2946 28.8164 67.7111C24.7224 64.5227 21.4073 60.4448 19.1219 55.786C16.8365 51.1272 15.6407 46.0096 15.625 40.8205C15.5235 22.1994 30.5703 6.69943 49.1719 6.25021C53.7553 6.13976 58.3145 6.94729 62.5811 8.62528C66.8477 10.3033 70.7356 12.8178 74.0158 16.0209C77.2961 19.224 79.9024 23.0509 81.6815 27.2763C83.4605 31.5018 84.3764 36.0405 84.375 40.6252ZM78.125 40.6252C78.1261 36.8739 77.3768 33.1603 75.921 29.7029C74.4653 26.2455 72.3326 23.1143 69.6486 20.4936C66.9645 17.8729 63.7833 15.8156 60.2922 14.4428C56.801 13.07 53.0706 12.4096 49.3203 12.5002C34.086 12.8596 21.793 25.5432 21.875 40.7776C21.889 45.0221 22.8683 49.2078 24.7389 53.018C26.6095 56.8281 29.3222 60.1628 32.6719 62.7697C34.1775 63.9402 35.3954 65.4397 36.2323 67.1533C37.0691 68.867 37.5028 70.7494 37.5 72.6565V75.0002H46.875V57.5432L35.2891 45.9612C34.7027 45.3748 34.3733 44.5795 34.3733 43.7502C34.3733 42.9209 34.7027 42.1256 35.2891 41.5393C35.8755 40.9529 36.6708 40.6235 37.5 40.6235C38.3293 40.6235 39.1246 40.9529 39.711 41.5393L50 51.8322L60.2891 41.5393C60.5794 41.2489 60.9241 41.0186 61.3035 40.8615C61.6828 40.7043 62.0894 40.6235 62.5 40.6235C62.9106 40.6235 63.3172 40.7043 63.6966 40.8615C64.0759 41.0186 64.4206 41.2489 64.711 41.5393C65.0013 41.8296 65.2316 42.1743 65.3888 42.5537C65.5459 42.933 65.6268 43.3396 65.6268 43.7502C65.6268 44.1608 65.5459 44.5674 65.3888 44.9468C65.2316 45.3261 65.0013 45.6708 64.711 45.9612L53.125 57.5432V75.0002H62.5V72.6565C62.5035 70.7438 62.9442 68.8572 63.7884 67.141C64.6327 65.4247 65.8581 63.9242 67.3711 62.7541C70.7309 60.1285 73.4463 56.7699 75.31 52.9347C77.1738 49.0995 78.1366 44.8892 78.125 40.6252Z" fill="#1D4C94"/>
</svg>
